Coordinates
version=1
nRows=11
nColumns=40
inDegrees=yes

Units are S.I. units (second, meters, Newtons, ...)
Angles are in degrees.

endheader
time	pelvis_tilt	pelvis_list	pelvis_rotation	pelvis_tx	pelvis_ty	pelvis_tz	hip_flexion_r	hip_adduction_r	hip_rotation_r	knee_angle_r	knee_angle_r_beta	ankle_angle_r	subtalar_angle_r	mtp_angle_r	hip_flexion_l	hip_adduction_l	hip_rotation_l	knee_angle_l	knee_angle_l_beta	ankle_angle_l	subtalar_angle_l	mtp_angle_l	lumbar_extension	lumbar_bending	lumbar_rotation	arm_flex_r	arm_add_r	arm_rot_r	elbow_flex_r	pro_sup_r	wrist_flex_r	wrist_dev_r	arm_flex_l	arm_add_l	arm_rot_l	elbow_flex_l	pro_sup_l	wrist_flex_l	wrist_dev_l
      0.43000000	     -4.45617497	     -5.11260069	      7.76136560	     -0.06032235	      0.87381468	     -0.40876586	     60.94331890	     -0.33366004	     -4.83234490	    -63.16174340	     -1.10238038	     -3.80147413	    -18.10184273	     25.51314548	    -12.57126803	      6.04159428	      0.55627747	    -31.95203536	     -0.55766822	    -26.63713195	     11.77814983	     -4.83064058	    -13.64630220	      3.86658138	    -23.38357329	    -41.27828729	    -32.26387998	     -7.67619357	     85.95086994	     89.95437384	      0.00000000	      0.00000000	     18.65932532	     20.39503531	    -10.37635681	    123.33539796	     89.95437384	      0.00000000	      0.00000000
      0.44000000	     -4.61031546	     -4.69620016	      7.49451098	     -0.01087759	      0.87698136	     -0.41014387	     59.96460842	     -0.30429785	     -4.66840323	    -56.37145460	     -0.98386749	     -6.79684200	    -17.08817763	     24.04517000	    -13.94028490	      5.47677832	     -0.73943856	    -32.08229556	     -0.55994169	    -27.82426001	      9.34097769	     16.19557029	    -12.93462454	      3.77606012	    -23.72211665	    -42.11483781	    -32.29907026	     -8.42824122	     86.59220289	     89.95437384	      0.00000000	      0.00000000	     17.42178362	     20.39303316	    -11.31202150	    125.84923450	     89.95437384	      0.00000000	      0.00000000
      0.45000000	     -4.80159325	     -4.16087568	      7.21897087	      0.03864084	      0.87907851	     -0.41155573	     58.67376764	     -0.35962352	     -4.54542451	    -50.02876990	     -0.87316676	     -9.30819287	    -15.45175459	     24.35652576	    -14.53668994	      4.49381143	     -2.37278026	    -33.30377052	     -0.58126045	    -28.97436779	      9.13802898	     16.44809435	    -12.14788829	      3.51914155	    -23.84738289	    -42.59604558	    -32.22066168	     -8.91223645	     86.86546757	     89.95437384	      0.00000000	      0.00000000	     15.85858525	     20.50049493	    -12.51211117	    127.81703068	     89.95437384	      0.00000000	      0.00000000
      0.46000000	     -4.89872497	     -3.77710505	      7.12239357	      0.08805456	      0.88038442	     -0.41327619	     56.93258371	     -0.47229673	     -4.93590533	    -44.17901720	     -0.77106931	    -11.95134539	    -14.28271241	     24.37840674	    -14.43828165	      3.54952425	     -4.23033532	    -36.07875538	     -0.62969307	    -28.20447945	      9.51206471	     16.50930138	    -11.44365131	      3.45649368	    -23.90430648	    -42.66231316	    -32.10578088	     -9.12225678	     86.87206985	     89.95437384	      0.00000000	      0.00000000	     14.02969528	     20.53732585	    -13.75949843	    129.04600039	     89.95437384	      0.00000000	      0.00000000
      0.47000000	     -5.06492297	     -3.36608112	      7.02430609	      0.13724844	      0.88079249	     -0.41437833	     55.18414630	     -0.52253455	     -5.31544478	    -39.38170655	     -0.68734044	    -14.28309741	    -13.73581486	     24.11060447	    -13.53182172	      2.61839140	     -5.53030859	    -40.07370678	     -0.69941813	    -27.47184079	     10.62604889	     16.81676513	    -10.65586737	      3.23446060	    -23.77211970	    -42.25454626	    -31.59220526	     -9.18990688	     86.59449035	     89.95437384	      0.00000000	      0.00000000	     11.92618032	     20.66070290	    -14.84350105	    129.25356023	     89.95437384	      0.00000000	      0.00000000
      0.48000000	     -4.97501836	     -2.85041653	      6.87668544	      0.18644126	      0.88107159	     -0.41533232	     53.07799877	     -0.71463937	     -6.08015592	    -35.82253540	     -0.62522119	    -16.35672723	    -12.86471365	     24.04798620	    -12.29981082	      1.75440111	     -5.71495560	    -44.83130139	     -0.78245382	    -27.25819981	     12.91517706	     17.21637053	    -10.19529717	      2.86920653	    -23.30547090	    -41.44542954	    -30.93848493	     -8.93972606	     85.95788213	     89.95437384	      0.00000000	      0.00000000	      9.65249617	     20.77117961	    -15.90346646	    128.59430105	     89.95437384	      0.00000000	      0.00000000
      0.49000000	     -4.71990125	     -2.23806252	      6.66134883	      0.23541143	      0.88084460	     -0.41592790	     50.87720980	     -0.92345845	     -6.81841292	    -33.68842080	     -0.58797386	    -18.19715543	    -12.03443227	     23.91400540	    -10.76383293	      1.03194449	     -5.11312879	    -50.16555930	     -0.87555418	    -26.62798832	     15.75930827	     17.65827039	     -9.96527130	      2.38622358	    -22.52277817	    -40.30793475	    -29.99624416	     -8.69780181	     85.23072110	     89.95437384	      0.00000000	      0.00000000	      7.23178615	     20.95989406	    -16.72063075	    127.12275369	     89.95437384	      0.00000000	      0.00000000
      0.50000000	     -4.49792299	     -1.54673686	      6.41703570	      0.28389972	      0.87967579	     -0.41618970	     48.80295209	     -1.23049011	     -7.65113897	    -32.91059351	     -0.57439822	    -19.85080719	    -11.47445467	     23.50841340	     -8.75770424	      0.43493671	     -4.23240796	    -55.97997042	     -0.97703480	    -24.70457772	     17.68782356	     18.48394522	     -9.69264573	      1.80027356	    -21.55861176	    -38.91079841	    -28.95952791	     -8.19867067	     84.50976223	     89.95437384	      0.00000000	      0.00000000	      4.56330800	     21.15906391	    -17.01465802	    124.93265429	     89.95437384	      0.00000000	      0.00000000
      0.51000000	     -3.82058197	     -0.68817555	      5.97425245	      0.33226880	      0.87851852	     -0.41635786	     45.88546780	     -1.46376761	     -7.90186574	    -32.41354688	     -0.56572312	    -21.25957211	    -10.52717836	     23.43364374	     -7.15413405	     -0.25892320	     -3.26829488	    -61.51747192	     -1.07368243	    -22.39234250	     18.65417809	     18.75547578	     -9.94214294	      1.09993392	    -20.18826183	    -37.20729633	    -27.89189552	     -7.58279900	     83.78041048	     89.95437384	      0.00000000	      0.00000000	      2.03248092	     21.56248299	    -17.26353045	    122.05556439	     89.95437384	      0.00000000	      0.00000000
      0.52000000	     -3.66102872	      0.02417898	      5.82605744	      0.37993804	      0.87543635	     -0.41715817	     43.40474402	     -1.96694462	     -8.58623688	    -32.30428630	     -0.56381616	    -22.85304453	    -10.24877136	     22.45584012	     -4.34424297	     -0.69950211	     -2.39786584	    -67.67924502	     -1.18122566	    -19.24419099	     18.95561298	     24.31278494	     -9.53621759	      0.62394242	    -19.00269532	    -35.46467288	    -27.03957982	     -6.77991238	     83.34497238	     89.95437384	      0.00000000	      0.00000000	     -0.76201292	     21.76446913	    -16.88842854	    118.61274902	     89.95437384	      0.00000000	      0.00000000
      0.53000000	     -3.15509940	      0.67419858	      5.60674247	      0.42749587	      0.87194163	     -0.41795183	     40.18809475	     -2.08983419	     -8.06747616	    -32.29582658	     -0.56366851	    -17.11773402	     -8.49005518	     21.67863160	     -1.72697978	     -0.97648567	     -1.48125621	    -73.53405163	     -1.28341131	    -17.46662779	     19.16051728	     24.64662450	     -9.51328531	      0.28066235	    -17.54394554	    -33.59035422	    -26.11433133	     -6.03769667	     83.10718460	     89.95437384	      0.00000000	      0.00000000	     -3.35177385	     22.14722177	    -16.57251113	    114.76210401	     89.95437384	      0.00000000	      0.00000000
